<?xml version="1.0" encoding="UTF-8"?><svg id="Layer_2" xmlns="http://www.w3.org/2000/svg" viewBox="0 0 1605.236 208.641"><g id="Layer_1-2"><path d="M336.968,22.933h31.771l55.733,141.206h-34.125l-10.269-28.348h-54.343l-10.377,28.348h-34.232l55.841-141.206ZM336.433,107.764h33.055l-16.367-46.32h-.321l-16.367,46.32Z"/><path d="M457.633,164.139h-32.627V16.942h32.627v147.197Z"/><path d="M499.888,208.641h-32.199V76.312h32.52v12.837c.998-1.995,2.905-4.189,5.723-6.578,2.816-2.389,6.419-4.457,10.805-6.205,4.386-1.747,9.36-2.621,14.923-2.621,8.558,0,15.886,2.104,21.984,6.312,6.098,4.209,10.786,9.825,14.067,16.848,3.279,7.026,4.921,14.817,4.921,23.375s-1.748,16.35-5.242,23.373c-3.495,7.026-8.398,12.623-14.709,16.795s-13.746,6.259-22.304,6.259c-6.134,0-11.358-1.089-15.672-3.263-4.316-2.175-7.702-4.6-10.162-7.274-2.461-2.674-4.012-4.76-4.654-6.258v58.729ZM540.859,120.279c0-3.993-.892-7.577-2.674-10.751-1.784-3.172-4.19-5.669-7.221-7.487-3.032-1.819-6.437-2.728-10.216-2.728-3.923,0-7.435.909-10.537,2.728-3.102,1.818-5.546,4.315-7.328,7.487-1.784,3.175-2.674,6.758-2.674,10.751s.891,7.578,2.674,10.751c1.782,3.174,4.226,5.652,7.328,7.435,3.103,1.783,6.614,2.674,10.537,2.674,3.779,0,7.184-.892,10.216-2.674,3.03-1.783,5.437-4.261,7.221-7.435,1.782-3.174,2.674-6.757,2.674-10.751Z"/><path d="M639.488,73.746c6.133,0,12.123,1.248,17.972,3.744,5.847,2.497,10.661,6.438,14.441,11.821,3.779,5.385,5.67,12.463,5.67,21.235v53.594h-32.52v-48.245c0-6.275-1.409-11-4.226-14.174-2.818-3.172-6.65-4.76-11.499-4.76-3.21,0-6.277.839-9.2,2.514-2.925,1.676-5.295,4.03-7.114,7.06-1.819,3.032-2.728,6.509-2.728,10.43v47.176h-32.627V16.942h32.627v72.315c.784-2.354,2.549-4.724,5.296-7.114,2.745-2.388,6.205-4.386,10.376-5.991,4.172-1.604,8.682-2.406,13.532-2.406Z"/><path d="M754.269,164.139v-14.227c-.641,1.427-2.266,3.494-4.867,6.204-2.603,2.711-6.044,5.153-10.323,7.328-4.28,2.174-9.271,3.263-14.977,3.263-8.557,0-16.046-2.087-22.464-6.259s-11.412-9.769-14.977-16.795c-3.566-7.024-5.348-14.816-5.348-23.373s1.782-16.348,5.348-23.375c3.565-7.022,8.559-12.639,14.977-16.848,6.418-4.207,13.908-6.312,22.464-6.312,5.491,0,10.306.874,14.441,2.621,4.135,1.748,7.49,3.816,10.056,6.205s4.348,4.583,5.349,6.578v-12.837h32.306v87.827h-31.985ZM713.191,120.279c0,3.994.925,7.578,2.78,10.751s4.333,5.652,7.436,7.435,6.543,2.674,10.323,2.674c3.922,0,7.382-.892,10.377-2.674s5.366-4.261,7.113-7.435,2.621-6.757,2.621-10.751-.874-7.577-2.621-10.751c-1.747-3.172-4.118-5.669-7.113-7.487-2.995-1.819-6.455-2.728-10.377-2.728-3.78,0-7.221.909-10.323,2.728-3.103,1.818-5.581,4.315-7.436,7.487-1.855,3.175-2.78,6.758-2.78,10.751Z"/><path d="M914.73,164.139h-15.94l-32.734-129.76h2.567l-32.734,129.76h-15.94l-28.454-141.206h13.478l23.535,125.802h-.214l32.52-125.802h13.158l32.521,125.802h-.322l23.641-125.802h13.48l-28.562,141.206Z"/><path d="M987.899,166.707c-8.772,0-16.564-2.052-23.373-6.151-6.811-4.101-12.16-9.644-16.046-16.635-3.888-6.988-5.83-14.797-5.83-23.427s1.942-16.49,5.83-23.589c3.887-7.095,9.236-12.73,16.046-16.901,6.81-4.172,14.601-6.258,23.373-6.258s16.528,2.086,23.268,6.258c6.739,4.172,12.034,9.807,15.885,16.901,3.851,7.098,5.777,14.96,5.777,23.589s-1.926,16.439-5.777,23.427c-3.851,6.991-9.146,12.534-15.885,16.635-6.74,4.1-14.495,6.151-23.268,6.151ZM987.899,155.687c6.633,0,12.426-1.533,17.384-4.6,4.956-3.065,8.807-7.273,11.554-12.622,2.744-5.349,4.118-11.34,4.118-17.972,0-6.703-1.374-12.747-4.118-18.132-2.747-5.384-6.598-9.663-11.554-12.837-4.957-3.172-10.75-4.76-17.384-4.76-6.703,0-12.552,1.588-17.544,4.76-4.992,3.175-8.878,7.453-11.659,12.837-2.782,5.385-4.173,11.429-4.173,18.132,0,6.632,1.391,12.623,4.173,17.972,2.781,5.349,6.668,9.557,11.659,12.622,4.992,3.067,10.841,4.6,17.544,4.6Z"/><path d="M1057.218,164.139h-11.982v-87.827h11.982v15.832h-.536c.285-1.853,1.587-4.224,3.905-7.113,2.317-2.888,5.472-5.491,9.467-7.809,3.993-2.317,8.701-3.477,14.121-3.477,4.135,0,7.684.518,10.645,1.551,2.958,1.034,5.009,2.086,6.15,3.155l-5.349,10.377c-.927-.926-2.657-1.853-5.187-2.782-2.532-.926-5.581-1.39-9.147-1.39-4.921,0-9.183,1.641-12.783,4.921-3.602,3.281-6.383,7.185-8.344,11.713-1.962,4.53-2.941,8.684-2.941,12.463v50.385Z"/><path d="M1154.669,76.312h15.832l-47.068,41.827,49.529,45.999h-15.939l-43.859-40.543v40.543h-12.195V16.942h12.195v96.171l41.506-36.8Z"/><path d="M1207.085,73.746c4.065,0,7.898.447,11.5,1.337,3.601.892,6.756,1.998,9.467,3.315,2.71,1.321,4.742,2.514,6.098,3.585l-5.883,8.45c-1.497-1.425-4.102-2.941-7.809-4.546-3.709-1.604-7.881-2.406-12.516-2.406-5.707,0-10.574,1.177-14.603,3.53-4.03,2.354-6.044,5.777-6.044,10.271,0,4.35,2.032,7.809,6.098,10.376,4.065,2.568,9.413,4.672,16.046,6.312,5.062,1.283,9.681,2.888,13.853,4.814s7.504,4.546,10.003,7.863c2.495,3.315,3.744,7.72,3.744,13.21,0,4.708-.963,8.756-2.888,12.142-1.926,3.388-4.546,6.15-7.863,8.29-3.315,2.14-7.079,3.745-11.285,4.814-4.21,1.069-8.63,1.605-13.265,1.605-4.779,0-9.2-.536-13.264-1.605-4.065-1.069-7.542-2.354-10.431-3.851s-5.081-2.888-6.578-4.172l6.098-9.521c1.853,1.926,4.902,3.904,9.146,5.937,4.242,2.032,9.216,3.049,14.923,3.049,6.632,0,12.104-1.533,16.421-4.6,4.314-3.066,6.472-7.096,6.472-12.089,0-3.637-1.035-6.56-3.103-8.772-2.07-2.209-4.779-3.975-8.13-5.295-3.353-1.319-6.918-2.442-10.698-3.369-3.637-.926-7.114-2.049-10.431-3.371-3.315-1.319-6.258-2.977-8.824-4.974-2.568-1.995-4.584-4.402-6.045-7.221-1.462-2.816-2.192-6.113-2.192-9.895,0-4.706,1.461-8.788,4.386-12.249,2.923-3.457,6.828-6.15,11.713-8.076,4.884-1.926,10.18-2.888,15.886-2.888Z"/><path d="M1262.604,208.641h-12.195V76.312h12.516v18.186c.428-2.354,2.157-5.152,5.189-8.398,3.03-3.244,7.13-6.115,12.301-8.612,5.17-2.496,11.143-3.744,17.918-3.744,7.986,0,15.173,1.855,21.555,5.563s11.463,9.039,15.245,15.992c3.779,6.953,5.669,15.28,5.669,24.978s-1.909,18.025-5.723,24.978c-3.816,6.954-8.932,12.267-15.351,15.939-6.418,3.673-13.623,5.51-21.608,5.51-6.918,0-12.998-1.321-18.24-3.959-5.241-2.638-9.343-5.633-12.301-8.986-2.961-3.351-4.618-6.025-4.974-8.023v62.902ZM1328.607,120.279c0-7.416-1.497-13.8-4.494-19.149-2.995-5.349-6.9-9.467-11.713-12.355-4.814-2.888-10.039-4.332-15.672-4.332-6.205,0-11.874,1.48-17.009,4.44s-9.218,7.113-12.249,12.462c-3.032,5.349-4.546,11.66-4.546,18.935s1.515,13.586,4.546,18.935c3.03,5.349,7.114,9.485,12.249,12.409,5.135,2.925,10.804,4.386,17.009,4.386,5.633,0,10.858-1.427,15.672-4.28,4.813-2.852,8.718-6.953,11.713-12.301,2.996-5.349,4.494-11.731,4.494-19.149Z"/><path d="M1422.529,164.139v-18.4c-.5,1.926-2.158,4.566-4.974,7.917-2.819,3.353-6.704,6.365-11.66,9.04-4.957,2.674-10.822,4.012-17.598,4.012-7.915,0-15.208-1.838-21.876-5.51-6.669-3.671-12.018-8.985-16.046-15.939-4.03-6.954-6.044-15.279-6.044-24.978s2.014-18.026,6.044-24.978c4.029-6.954,9.377-12.284,16.046-15.992,6.668-3.708,13.96-5.563,21.876-5.563,6.775,0,12.623,1.266,17.544,3.797,4.921,2.532,8.826,5.439,11.714,8.718,2.888,3.281,4.51,6.028,4.867,8.237v-18.186h11.982v87.827h-11.874ZM1356.418,120.279c0,7.418,1.605,13.8,4.814,19.149s7.363,9.45,12.463,12.301c5.098,2.853,10.465,4.28,16.099,4.28,6.205,0,11.731-1.461,16.581-4.386,4.85-2.924,8.683-7.06,11.5-12.409,2.816-5.349,4.226-11.66,4.226-18.935s-1.409-13.586-4.226-18.935c-2.818-5.349-6.65-9.502-11.5-12.462s-10.376-4.44-16.581-4.44c-5.634,0-11.001,1.444-16.099,4.332-5.1,2.888-9.254,7.006-12.463,12.355s-4.814,11.733-4.814,19.149Z"/><path d="M1489.172,156.009c6.274,0,11.302-.98,15.083-2.942,3.779-1.961,6.098-3.333,6.953-4.118l6.418,9.413c-.571.428-2.175,1.337-4.813,2.728-2.64,1.391-6.045,2.674-10.217,3.851s-8.897,1.765-14.173,1.765c-7.06,0-13.872-1.749-20.432-5.242-6.562-3.493-11.965-8.7-16.207-15.618-4.244-6.917-6.365-15.475-6.365-25.675,0-10.269,2.121-18.843,6.365-25.727,4.242-6.88,9.644-12.051,16.207-15.51,6.56-3.459,13.372-5.189,20.432-5.189,5.277,0,9.911.642,13.907,1.926,3.993,1.283,7.274,2.711,9.841,4.278,2.568,1.57,4.172,2.711,4.814,3.423l-6.312,9.308c-.642-.57-1.838-1.515-3.583-2.836-1.748-1.318-4.119-2.548-7.114-3.69-2.995-1.14-6.598-1.712-10.804-1.712-5.065,0-10.056,1.391-14.977,4.172s-8.969,6.829-12.141,12.141c-3.175,5.315-4.76,11.786-4.76,19.416s1.586,14.121,4.76,19.469c3.172,5.349,7.221,9.414,12.141,12.195,4.921,2.782,9.912,4.173,14.977,4.173Z"/><path d="M1533.029,121.67c.07,6.134,1.3,11.873,3.691,17.222,2.388,5.349,6.007,9.665,10.858,12.944,4.848,3.281,10.946,4.922,18.293,4.922,5.99,0,11-.98,15.03-2.942,4.029-1.96,7.238-4.242,9.627-6.846,2.389-2.602,4.083-4.938,5.082-7.006l7.595,7.487c-2.639,4.065-5.688,7.542-9.146,10.431-3.46,2.888-7.525,5.081-12.195,6.578-4.672,1.497-10.217,2.247-16.635,2.247-9.343,0-17.313-2.087-23.909-6.259-6.597-4.172-11.625-9.858-15.082-17.062-3.461-7.202-5.189-15.298-5.189-24.284,0-8.558,1.712-16.26,5.135-23.107,3.423-6.846,8.361-12.265,14.816-16.26,6.454-3.992,14.244-5.99,23.375-5.99,8.272,0,15.458,1.818,21.555,5.455s10.839,8.684,14.227,15.137c3.386,6.455,5.081,13.96,5.081,22.518,0,.642-.018,1.462-.053,2.46-.037,1-.091,1.784-.161,2.354h-71.993ZM1593.041,111.507c-.071-3.851-1.015-7.933-2.835-12.249-1.818-4.314-4.779-7.986-8.878-11.018-4.102-3.03-9.719-4.546-16.849-4.546-7.418,0-13.318,1.48-17.704,4.439-4.386,2.961-7.579,6.58-9.574,10.859-1.998,4.278-3.209,8.45-3.637,12.516h59.478Z"/><path d="M103.032,0C46.129,0,0,46.129,0,103.032s46.129,103.032,103.032,103.032,103.032-46.129,103.032-103.032S159.935,0,103.032,0ZM85.248,153.076l.005-.005c-2.587,6.393-3.089,12.594-2.562,19.123.124,1.547.305,3.112.53,4.699l-36.712-72.95c-1.075-2.231-1.943-4.558-2.582-6.948-2.458-9.212-1.33-19.139,3.056-27.599,5.058-9.757,14.005-16.403,24.053-20.494-1.62,1.388-2.928,2.918-3.448,4.437-.994,2.812-1.153,5.57-.522,8.962.427,2.198,1.196,4.402,2.35,6.741l31.72,63.541c-6.936,5.3-12.604,12.377-15.888,20.491ZM146.404,115.746l-65.712-33.053c-1.81-3.627-3.619-7.249-5.429-10.875-2.61-5.224-6.083-10.282-3.968-16.37l.003.003c.124-.346.257-.686.409-1.02,1.628-3.602,4.975-6.403,8.828-7.309,3.183-.75,6.557-.262,9.641.823,6.38,2.246,93.431,47.002,100.564,50.601.073.063.154.124.235.174,2.612,2.092,3.685,3.342,4.147,4.021l-48.718,13.006Z"/></g></svg>