<svg xmlns="http://www.w3.org/2000/svg" viewBox="0 0 360 360">
  <rect width="360" height="360" rx="80" fill="#0B1215"/>
  <g transform="translate(52.37 52.37) scale(0.7091)">
    <path fill="#FBFAF2" d="M179.63,0C80.423,0,0,80.423,0,179.63s80.423,179.63,179.63,179.63,179.63-80.423,179.63-179.63S278.838,0,179.63,0ZM148.625,266.881l.009-.009c-4.51,11.146-5.386,21.957-4.466,33.341.216,2.697.532,5.425.924,8.193l-64.006-127.185c-1.875-3.89-3.388-7.947-4.501-12.114-4.286-16.061-2.319-33.367,5.329-48.117,8.818-17.011,24.417-28.597,41.934-35.73-2.825,2.42-5.104,5.087-6.011,7.736-1.734,4.902-2.011,9.711-.911,15.625.744,3.833,2.086,7.674,4.097,11.753l55.302,110.78c-12.092,9.241-21.975,21.579-27.7,35.726ZM255.247,201.797l-114.565-57.626c-3.155-6.323-6.31-12.638-9.465-18.961-4.55-9.109-10.605-17.927-6.917-28.54l.004.004c.216-.603.449-1.197.713-1.778,2.838-6.279,8.673-11.164,15.392-12.743,5.549-1.307,11.432-.458,16.809,1.434,11.124,3.916,162.893,81.946,175.328,88.22.128.11.268.216.409.304,4.554,3.648,6.424,5.826,7.23,7.01l-84.938,22.675Z"/>
  </g>
</svg>
